<svg width="194" height="160" viewBox="0 0 194 160" fill="none" xmlns="http://www.w3.org/2000/svg">
<g filter="url(#filter0_d_1540_33)">
<path d="M29 88.5C29 50.1162 60.1162 19 98.5 19H165V117C165 119.209 163.209 121 161 121H33C30.7909 121 29 119.209 29 117V88.5Z" fill="#003ADB"/>
</g>
<g clip-path="url(#clip0_1540_33)">
<path d="M89 62V78H105V62H89ZM85 58H109V82H85V58ZM85 50H89V56H85V50ZM85 84H89V90H85V84ZM77 58H83V62H77V58ZM77 78H83V82H77V78ZM111 58H117V62H111V58ZM111 78H117V82H111V78ZM105 50H109V56H105V50ZM105 84H109V90H105V84Z" fill="white"/>
</g>
<defs>
<filter id="filter0_d_1540_33" x="0" y="0" width="194" height="160" filterUnits="userSpaceOnUse" color-interpolation-filters="sRGB">
<feFlood flood-opacity="0" result="BackgroundImageFix"/>
<feColorMatrix in="SourceAlpha" type="matrix" values="0 0 0 0 0 0 0 0 0 0 0 0 0 0 0 0 0 0 127 0" result="hardAlpha"/>
<feOffset dy="10"/>
<feGaussianBlur stdDeviation="14.5"/>
<feColorMatrix type="matrix" values="0 0 0 0 0.25098 0 0 0 0 0.505647 0 0 0 0 1 0 0 0 0.24 0"/>
<feBlend mode="normal" in2="BackgroundImageFix" result="effect1_dropShadow_1540_33"/>
<feBlend mode="normal" in="SourceGraphic" in2="effect1_dropShadow_1540_33" result="shape"/>
</filter>
<clipPath id="clip0_1540_33">
<rect width="48" height="48" fill="white" transform="translate(73 46)"/>
</clipPath>
</defs>
</svg>
